<svg width="16" height="16" viewBox="0 0 16 16" fill="none" xmlns="http://www.w3.org/2000/svg">
<path fill-rule="evenodd" clip-rule="evenodd" d="M5.18251 6.18146C5.18251 8.74193 7.25813 10.8176 9.81857 10.8176C12.379 10.8176 14.4546 8.74193 14.4546 6.18146C14.4546 3.62102 12.379 1.54537 9.81857 1.54537C7.25813 1.54537 5.18251 3.62102 5.18251 6.18146ZM6.02802 11.0647C7.07485 11.8784 8.39015 12.3629 9.81857 12.3629C13.2325 12.3629 16 9.59538 16 6.18146C16 2.76753 13.2325 0 9.81857 0C6.40468 0 3.63715 2.76753 3.63715 6.18146C3.63715 7.6099 4.12167 8.92521 4.93535 9.97194L0 14.9073L1.09277 16L6.02802 11.0647Z" fill="#CCCCCC"/>
</svg>
