<svg width="15" height="21" viewBox="0 0 15 21" fill="none" xmlns="http://www.w3.org/2000/svg">
<path d="M8.24609 0.270508C8.43305 0.021261 8.76627 -0.0678447 9.05273 0.0546875C9.33915 0.177245 9.50521 0.479813 9.4541 0.787109L8.2334 8.11133H14.1943C14.4503 8.11138 14.6843 8.2564 14.7988 8.48535C14.9129 8.71412 14.8887 8.98772 14.7354 9.19238L6.62402 20.0078C6.43707 20.2569 6.10377 20.3461 5.81738 20.2236C5.53098 20.1012 5.36591 19.7984 5.41699 19.4912L6.63672 12.167H0.675781C0.419805 12.167 0.185763 12.0219 0.0712891 11.793C-0.0431244 11.564 -0.0188102 11.2897 0.134766 11.085L8.24609 0.270508Z" fill="#0078D4"/>
</svg>
